<svg xmlns="http://www.w3.org/2000/svg" viewBox="0 0 100 100">
  <!-- Tree -->
  <polygon points="50,10 30,35 35,35 20,55 25,55 10,75 50,75 90,75 75,55 80,55 65,35 70,35" fill="#2d5016"/>
  <!-- Star on top -->
  <polygon points="50,5 52,12 59,12 53,16 55,23 50,19 45,23 47,16 41,12 48,12" fill="#ffd700"/>
  <!-- Trunk -->
  <rect x="45" y="75" width="10" height="15" fill="#8b4513"/>
  <!-- Ornaments -->
  <circle cx="40" cy="45" r="3" fill="#ff0000"/>
  <circle cx="60" cy="50" r="3" fill="#0000ff"/>
  <circle cx="50" cy="60" r="3" fill="#ff0000"/>
  <circle cx="35" cy="65" r="3" fill="#ffd700"/>
  <circle cx="65" cy="65" r="3" fill="#0000ff"/>
</svg>
